<?xml version="1.0" encoding="utf-8"?>
<svg fill="currentColor" width="800px" height="800px" viewBox="0 0 24 24" id="atom-structure" data-name="Flat Color" xmlns="http://www.w3.org/2000/svg" class="icon flat-color">
    <style>
        /* Light Theme Styles */
        @media (prefers-color-scheme: light) {
            #secondary {
                fill: rgb(44, 169, 188); /* Change this to your desired light color */
            }
            #primary {
                fill: black; /* Change this to your desired light color */
            }
        }

        /* Dark Theme Styles */
        @media (prefers-color-scheme: dark) {
            #secondary {
                fill: white; /* Change this to your desired dark color */
            }
            #primary {
                fill: white; /* Change this to your desired dark color */
            }
        }
    </style>
    <circle id="secondary" cx="12" cy="12" r="1.5"></circle>
    <path id="primary" d="M19.1,22a8.34,8.34,0,0,1-3.59-1A21.59,21.59,0,0,1,12,18.8,21.59,21.59,0,0,1,8.49,21c-3.3,1.61-4.92,1-5.71.23C1,19.43,2.45,15.69,5.2,12,2.45,8.31,1,4.57,2.78,2.79,3.57,2,5.19,1.41,8.49,3A21.59,21.59,0,0,1,12,5.2,21.59,21.59,0,0,1,15.51,3c3.3-1.61,4.92-1,5.7-.23s1.38,2.4-.23,5.7A21.59,21.59,0,0,1,18.8,12,21.59,21.59,0,0,1,21,15.51c1.61,3.3,1,4.92,.23,5.7A2.81,2.81,0,0,1,19.1,22Zm-5.48-4.5a18.41,18.41,0,0,0,2.77,1.69c1.87.91,3.06,1,3.41.61s.3-1.54-.61-3.41a18.41,18.41,0,0,0-1.69-2.77c-.58.68-1.21,1.35-1.87,2h0C15,16.29,14.3,16.92,13.62,17.5ZM6.5,13.62C4.3,16.7,3.56,19.17,4.2,19.8c.35.35,1.54.3,3.41-.61a18.41,18.41,0,0,0,2.77-1.69c-.68-.58-1.35-1.21-2-1.87S7.09,14.31,6.5,13.62ZM7.75,12c.6.72,1.28,1.47,2,2.22s1.47,1.41,2.22,2c.75-.62,1.49-1.3,2.22-2h0c.73-.73,1.41-1.47,2-2.22-.62-.75-1.3-1.49-2-2.22s-1.47-1.41-2.22-2c-.75.62-1.49,1.3-2.22,2S8.35,11.28,7.75,12Zm5.87-5.5c.68.58,1.35,1.21,2,1.87s1.29,1.33,1.87,2a18.41,18.41,0,0,0,1.69-2.77c.91-1.87,1-3.06,.61-3.41s-1.55-.3-3.41.61A18.41,18.41,0,0,0,13.62,6.5ZM4.9,4a1,1,0,0,0-.7.2h0c-.64.63.1,3.1,2.3,6.18.59-.69,1.22-1.36,1.87-2s1.33-1.29,2-1.87A18.41,18.41,0,0,0,7.61,4.81,6.71,6.71,0,0,0,4.9,4ZM3.49,3.49h0Z"></path>
</svg>
