<svg id="visual" viewBox="0 0 1920 1080" width="1920" height="1080" xmlns="http://www.w3.org/2000/svg" xmlns:xlink="http://www.w3.org/1999/xlink" version="1.1"><rect x="0" y="0" width="1920" height="1080" fill="#FFFFFF"></rect><defs><linearGradient id="grad1_0" x1="43.8%" y1="100%" x2="100%" y2="0%"><stop offset="14.444444444444446%" stop-color="#ffffff" stop-opacity="1"></stop><stop offset="85.55555555555554%" stop-color="#ffffff" stop-opacity="1"></stop></linearGradient></defs><defs><linearGradient id="grad2_0" x1="0%" y1="100%" x2="56.3%" y2="0%"><stop offset="14.444444444444446%" stop-color="#ffffff" stop-opacity="1"></stop><stop offset="85.55555555555554%" stop-color="#ffffff" stop-opacity="1"></stop></linearGradient></defs><g transform="translate(1920, 1080)"><path d="M-810 0C-773.3 -64.6 -736.5 -129.3 -711.9 -190.7C-687.2 -252.2 -674.6 -310.5 -659 -380.5C-643.4 -450.5 -624.8 -532.3 -572.8 -572.8C-520.7 -613.2 -435.2 -612.2 -371 -642.6C-306.8 -673 -264 -734.8 -205.8 -767.9C-147.5 -801 -73.7 -805.5 0 -810L0 0Z" fill="#0066FF"></path></g><g transform="translate(0, 0)"><path d="M810 0C784.2 66.6 758.4 133.2 732.2 196.2C705.9 259.2 679.2 318.6 643.5 371.5C607.7 424.4 563 470.8 520.4 520.4C477.9 570 437.5 622.8 387 670.3C336.5 717.8 275.8 760 209.6 782.4C143.5 804.8 71.7 807.4 0 810L0 0Z" fill="#0066FF"></path></g></svg>