<svg id="visual" viewBox="0 0 960 540" width="960" height="540" xmlns="http://www.w3.org/2000/svg" xmlns:xlink="http://www.w3.org/1999/xlink" version="1.1"><rect x="0" y="0" width="960" height="540" fill="#FFFFFF"></rect><defs><linearGradient id="grad1_0" x1="43.8%" y1="0%" x2="100%" y2="100%"><stop offset="14.444444444444446%" stop-color="#ffffff" stop-opacity="1"></stop><stop offset="85.55555555555554%" stop-color="#ffffff" stop-opacity="1"></stop></linearGradient></defs><defs><linearGradient id="grad2_0" x1="0%" y1="0%" x2="56.3%" y2="100%"><stop offset="14.444444444444446%" stop-color="#ffffff" stop-opacity="1"></stop><stop offset="85.55555555555554%" stop-color="#ffffff" stop-opacity="1"></stop></linearGradient></defs><g transform="translate(960, 0)"><path d="M0 486C-61.7 478.3 -123.3 470.5 -186 449C-248.7 427.5 -312.4 392.2 -338.7 338.7C-365 285.3 -354 213.7 -372.3 154.2C-390.6 94.8 -438.3 47.4 -486 0L0 0Z" fill="#0066FF"></path></g><g transform="translate(0, 540)"><path d="M0 -486C41.9 -431.9 83.7 -377.9 150.8 -364C217.8 -350.2 310.1 -376.5 343.7 -343.7C377.2 -310.8 351.9 -218.7 365.9 -151.5C379.8 -84.4 432.9 -42.2 486 0L0 0Z" fill="#0066FF"></path></g></svg>