<svg id="visual" viewBox="0 0 900 600" width="900" height="600" xmlns="http://www.w3.org/2000/svg" xmlns:xlink="http://www.w3.org/1999/xlink" version="1.1"><path d="M0 328L25 309.5C50 291 100 254 150 249.8C200 245.7 250 274.3 300 290.3C350 306.3 400 309.7 450 311.8C500 314 550 315 600 303.3C650 291.7 700 267.3 750 252C800 236.7 850 230.3 875 227.2L900 224L900 0L875 0C850 0 800 0 750 0C700 0 650 0 600 0C550 0 500 0 450 0C400 0 350 0 300 0C250 0 200 0 150 0C100 0 50 0 25 0L0 0Z" fill="#0066FF" stroke-linecap="round" stroke-linejoin="miter"></path></svg>