<svg id="visual" viewBox="0 0 900 600" width="900" height="600" xmlns="http://www.w3.org/2000/svg" xmlns:xlink="http://www.w3.org/1999/xlink" version="1.1"><path d="M0 94L12.5 94.7C25 95.3 50 96.7 75 91.7C100 86.7 125 75.3 150 72.8C175 70.3 200 76.7 225 78.3C250 80 275 77 300 79C325 81 350 88 375 94.5C400 101 425 107 450 110.5C475 114 500 115 525 111C550 107 575 98 600 89.2C625 80.3 650 71.7 675 74.2C700 76.7 725 90.3 750 91.7C775 93 800 82 825 82.5C850 83 875 95 887.5 101L900 107L900 0L887.5 0C875 0 850 0 825 0C800 0 775 0 750 0C725 0 700 0 675 0C650 0 625 0 600 0C575 0 550 0 525 0C500 0 475 0 450 0C425 0 400 0 375 0C350 0 325 0 300 0C275 0 250 0 225 0C200 0 175 0 150 0C125 0 100 0 75 0C50 0 25 0 12.5 0L0 0Z" fill="#0066FF" stroke-linecap="round" stroke-linejoin="miter"></path></svg>