<svg id="visual" viewBox="0 0 1920 1080" width="1920" height="1080" xmlns="http://www.w3.org/2000/svg" xmlns:xlink="http://www.w3.org/1999/xlink" version="1.1"><path d="M0 891L40 891C80 891 160 891 240 890.2C320 889.3 400 887.7 480 886.2C560 884.7 640 883.3 720 888C800 892.7 880 903.3 960 902.7C1040 902 1120 890 1200 880.3C1280 870.7 1360 863.3 1440 861.3C1520 859.3 1600 862.7 1680 868.7C1760 874.7 1840 883.3 1880 887.7L1920 892L1920 1081L1880 1081C1840 1081 1760 1081 1680 1081C1600 1081 1520 1081 1440 1081C1360 1081 1280 1081 1200 1081C1120 1081 1040 1081 960 1081C880 1081 800 1081 720 1081C640 1081 560 1081 480 1081C400 1081 320 1081 240 1081C160 1081 80 1081 40 1081L0 1081Z" fill="#4facf7"></path><path d="M0 917L40 920.2C80 923.3 160 929.7 240 936.5C320 943.3 400 950.7 480 946.7C560 942.7 640 927.3 720 919.8C800 912.3 880 912.7 960 908.5C1040 904.3 1120 895.7 1200 894.7C1280 893.7 1360 900.3 1440 913.3C1520 926.3 1600 945.7 1680 939.3C1760 933 1840 901 1880 885L1920 869L1920 1081L1880 1081C1840 1081 1760 1081 1680 1081C1600 1081 1520 1081 1440 1081C1360 1081 1280 1081 1200 1081C1120 1081 1040 1081 960 1081C880 1081 800 1081 720 1081C640 1081 560 1081 480 1081C400 1081 320 1081 240 1081C160 1081 80 1081 40 1081L0 1081Z" fill="#008cff"></path><path d="M0 959L40 964.8C80 970.7 160 982.3 240 979.5C320 976.7 400 959.3 480 957.3C560 955.3 640 968.7 720 978.2C800 987.7 880 993.3 960 988.2C1040 983 1120 967 1200 956.3C1280 945.7 1360 940.3 1440 939.8C1520 939.3 1600 943.7 1680 943C1760 942.3 1840 936.7 1880 933.8L1920 931L1920 1081L1880 1081C1840 1081 1760 1081 1680 1081C1600 1081 1520 1081 1440 1081C1360 1081 1280 1081 1200 1081C1120 1081 1040 1081 960 1081C880 1081 800 1081 720 1081C640 1081 560 1081 480 1081C400 1081 320 1081 240 1081C160 1081 80 1081 40 1081L0 1081Z" fill="#0d63ff"></path><path d="M0 1040L40 1034.2C80 1028.3 160 1016.7 240 1016.3C320 1016 400 1027 480 1024.7C560 1022.3 640 1006.7 720 1007.7C800 1008.7 880 1026.3 960 1029C1040 1031.7 1120 1019.3 1200 1014C1280 1008.7 1360 1010.3 1440 1015.7C1520 1021 1600 1030 1680 1031.3C1760 1032.7 1840 1026.3 1880 1023.2L1920 1020L1920 1081L1880 1081C1840 1081 1760 1081 1680 1081C1600 1081 1520 1081 1440 1081C1360 1081 1280 1081 1200 1081C1120 1081 1040 1081 960 1081C880 1081 800 1081 720 1081C640 1081 560 1081 480 1081C400 1081 320 1081 240 1081C160 1081 80 1081 40 1081L0 1081Z" fill="#6600ff"></path></svg>