<svg id="visual" viewBox="0 0 1920 1080" width="1920" height="1080" xmlns="http://www.w3.org/2000/svg" xmlns:xlink="http://www.w3.org/1999/xlink" version="1.1"><path d="M0 910L45.7 875C91.3 840 182.7 770 274.2 742C365.7 714 457.3 728 548.8 753.5C640.3 779 731.7 816 823 847.7C914.3 879.3 1005.7 905.7 1097 904.5C1188.3 903.3 1279.7 874.7 1371.2 872.3C1462.7 870 1554.3 894 1645.8 894C1737.3 894 1828.7 870 1874.3 858L1920 846L1920 1081L1874.3 1081C1828.7 1081 1737.3 1081 1645.8 1081C1554.3 1081 1462.7 1081 1371.2 1081C1279.7 1081 1188.3 1081 1097 1081C1005.7 1081 914.3 1081 823 1081C731.7 1081 640.3 1081 548.8 1081C457.3 1081 365.7 1081 274.2 1081C182.7 1081 91.3 1081 45.7 1081L0 1081Z" fill="#0066FF" stroke-linecap="round" stroke-linejoin="miter"></path></svg>
