<svg id="visual" viewBox="0 0 675 900" width="675" height="900" xmlns="http://www.w3.org/2000/svg" xmlns:xlink="http://www.w3.org/1999/xlink" version="1.1"><path d="M0 444L16 437.8C32 431.7 64 419.3 96.2 425.3C128.3 431.3 160.7 455.7 192.8 470.2C225 484.7 257 489.3 289.2 489.3C321.3 489.3 353.7 484.7 385.8 477.5C418 470.3 450 460.7 482.2 451C514.3 441.3 546.7 431.7 578.8 425.8C611 420 643 418 659 417L675 416L675 901L659 901C643 901 611 901 578.8 901C546.7 901 514.3 901 482.2 901C450 901 418 901 385.8 901C353.7 901 321.3 901 289.2 901C257 901 225 901 192.8 901C160.7 901 128.3 901 96.2 901C64 901 32 901 16 901L0 901Z" fill="#ff9825" stroke-linecap="round" stroke-linejoin="miter"></path></svg>