<svg id="visual" viewBox="0 0 1920 1080" width="1920" height="1080" xmlns="http://www.w3.org/2000/svg" xmlns:xlink="http://www.w3.org/1999/xlink" version="1.1"><path d="M0 113L26.7 113.7C53.3 114.3 106.7 115.7 160 109.8C213.3 104 266.7 91 320 88.2C373.3 85.3 426.7 92.7 480 94.5C533.3 96.3 586.7 92.7 640 95C693.3 97.3 746.7 105.7 800 113.5C853.3 121.3 906.7 128.7 960 132.8C1013.3 137 1066.7 138 1120 133.2C1173.3 128.3 1226.7 117.7 1280 107C1333.3 96.3 1386.7 85.7 1440 88.5C1493.3 91.3 1546.7 107.7 1600 109.5C1653.3 111.3 1706.7 98.7 1760 99.5C1813.3 100.3 1866.7 114.7 1893.3 121.8L1920 129L1920 0L1893.3 0C1866.7 0 1813.3 0 1760 0C1706.7 0 1653.3 0 1600 0C1546.7 0 1493.3 0 1440 0C1386.7 0 1333.3 0 1280 0C1226.7 0 1173.3 0 1120 0C1066.7 0 1013.3 0 960 0C906.7 0 853.3 0 800 0C746.7 0 693.3 0 640 0C586.7 0 533.3 0 480 0C426.7 0 373.3 0 320 0C266.7 0 213.3 0 160 0C106.7 0 53.3 0 26.7 0L0 0Z" fill="#0066FF" stroke-linecap="round" stroke-linejoin="miter"></path></svg>