<svg id="visual" viewBox="0 0 1920 1080" width="1920" height="1080" xmlns="http://www.w3.org/2000/svg" xmlns:xlink="http://www.w3.org/1999/xlink" version="1.1"><path d="M0 702L45.7 670.5C91.3 639 182.7 576 274.2 580.2C365.7 584.3 457.3 655.7 548.8 658.8C640.3 662 731.7 597 823 544.7C914.3 492.3 1005.7 452.7 1097 478.7C1188.3 504.7 1279.7 596.3 1371.2 592C1462.7 587.7 1554.3 487.3 1645.8 479.2C1737.3 471 1828.7 555 1874.3 597L1920 639L1920 0L1874.3 0C1828.7 0 1737.3 0 1645.8 0C1554.3 0 1462.7 0 1371.2 0C1279.7 0 1188.3 0 1097 0C1005.7 0 914.3 0 823 0C731.7 0 640.3 0 548.8 0C457.3 0 365.7 0 274.2 0C182.7 0 91.3 0 45.7 0L0 0Z" fill="#0066FF" stroke-linecap="round" stroke-linejoin="miter"></path></svg>