<svg id="visual" viewBox="0 0 675 900" width="675" height="900" xmlns="http://www.w3.org/2000/svg" xmlns:xlink="http://www.w3.org/1999/xlink" version="1.1"><path d="M0 141L9.3 142C18.7 143 37.3 145 56.2 137.7C75 130.3 94 113.7 112.8 110C131.7 106.3 150.3 115.7 169 118C187.7 120.3 206.3 115.7 225 118.7C243.7 121.7 262.3 132.3 281.2 142.2C300 152 319 161 337.8 166.2C356.7 171.3 375.3 172.7 394 166.7C412.7 160.7 431.3 147.3 450 134C468.7 120.7 487.3 107.3 506.2 111C525 114.7 544 135.3 562.8 137.5C581.7 139.7 600.3 123.3 619 124.2C637.7 125 656.3 143 665.7 152L675 161L675 0L665.7 0C656.3 0 637.7 0 619 0C600.3 0 581.7 0 562.8 0C544 0 525 0 506.2 0C487.3 0 468.7 0 450 0C431.3 0 412.7 0 394 0C375.3 0 356.7 0 337.8 0C319 0 300 0 281.2 0C262.3 0 243.7 0 225 0C206.3 0 187.7 0 169 0C150.3 0 131.7 0 112.8 0C94 0 75 0 56.2 0C37.3 0 18.7 0 9.3 0L0 0Z" fill="#0066FF" stroke-linecap="round" stroke-linejoin="miter"></path></svg>