<svg id="visual" viewBox="0 0 900 600" width="900" height="600" xmlns="http://www.w3.org/2000/svg" xmlns:xlink="http://www.w3.org/1999/xlink" version="1.1"><path d="M0 296L21.5 291.8C43 287.7 86 279.3 128.8 283.2C171.7 287 214.3 303 257.2 312.7C300 322.3 343 325.7 385.8 325.7C428.7 325.7 471.3 322.3 514.2 317.5C557 312.7 600 306.3 642.8 300C685.7 293.7 728.3 287.3 771.2 283.5C814 279.7 857 278.3 878.5 277.7L900 277L900 601L878.5 601C857 601 814 601 771.2 601C728.3 601 685.7 601 642.8 601C600 601 557 601 514.2 601C471.3 601 428.7 601 385.8 601C343 601 300 601 257.2 601C214.3 601 171.7 601 128.8 601C86 601 43 601 21.5 601L0 601Z" fill="#0066FF" stroke-linecap="round" stroke-linejoin="miter"></path></svg>