<svg id="visual" viewBox="0 0 675 900" width="675" height="900" xmlns="http://www.w3.org/2000/svg" xmlns:xlink="http://www.w3.org/1999/xlink" version="1.1"><path d="M0 458L22.5 464.8C45 471.7 90 485.3 135 493.2C180 501 225 503 270 481C315 459 360 413 405 398.7C450 384.3 495 401.7 540 414.5C585 427.3 630 435.7 652.5 439.8L675 444L675 0L652.5 0C630 0 585 0 540 0C495 0 450 0 405 0C360 0 315 0 270 0C225 0 180 0 135 0C90 0 45 0 22.5 0L0 0Z" fill="#0066FF" stroke-linecap="round" stroke-linejoin="miter"></path></svg>