<?xml version="1.0" standalone="no"?>
<!DOCTYPE svg PUBLIC "-//W3C//DTD SVG 20010904//EN"
 "http://www.w3.org/TR/2001/REC-SVG-20010904/DTD/svg10.dtd">
<svg version="1.0" xmlns="http://www.w3.org/2000/svg"
 width="711.000000pt" height="900.000000pt" viewBox="0 0 711.000000 900.000000"
 preserveAspectRatio="xMidYMid meet">
<metadata>
Created by potrace 1.10, written by Peter Selinger 2001-2011
</metadata>
<g transform="translate(0.000000,900.000000) scale(0.100000,-0.100000)"
fill="#a34f23" stroke="none">
<path d="M2795 8920 c-38 -11 -92 -20 -118 -20 -26 0 -60 -6 -75 -14 -15 -7
-47 -17 -72 -21 -25 -4 -62 -16 -82 -26 -21 -11 -44 -19 -52 -19 -18 0 -267
-85 -321 -110 -11 -5 -51 -22 -90 -39 -160 -68 -385 -192 -385 -211 0 -6 -13
-10 -28 -10 -18 0 -42 -13 -68 -36 -21 -20 -50 -42 -64 -48 -42 -19 -100 -58
-100 -65 0 -5 -21 -22 -47 -40 -73 -47 -111 -77 -146 -110 -17 -17 -34 -31
-37 -31 -4 0 -29 -21 -56 -47 -27 -27 -83 -80 -124 -120 -41 -39 -90 -86 -107
-105 -18 -18 -37 -37 -43 -43 -37 -36 -147 -166 -166 -197 -13 -21 -35 -45
-49 -54 -13 -9 -27 -25 -31 -36 -6 -19 -63 -98 -109 -150 -8 -10 -15 -22 -15
-28 0 -5 -13 -25 -30 -43 -16 -19 -30 -38 -30 -41 0 -4 -20 -37 -44 -75 -50
-75 -77 -122 -116 -197 -15 -28 -36 -64 -47 -80 -11 -16 -23 -39 -27 -51 -4
-11 -13 -27 -21 -33 -8 -7 -15 -24 -15 -38 0 -15 -10 -35 -24 -47 -13 -11 -27
-32 -30 -48 -8 -35 5 -41 137 -62 54 -9 117 -24 140 -34 24 -10 62 -22 85 -26
23 -4 44 -10 47 -15 3 -4 20 -11 38 -14 18 -3 51 -15 72 -26 22 -11 45 -20 52
-20 7 0 21 -4 31 -9 31 -17 227 -108 244 -114 10 -4 18 -11 18 -17 0 -5 15
-17 32 -25 82 -39 109 -57 135 -90 15 -19 36 -35 46 -35 10 0 39 -21 66 -47
27 -27 55 -53 62 -59 92 -74 272 -351 294 -454 4 -19 14 -45 23 -58 8 -12 18
-40 22 -60 4 -20 16 -64 25 -97 16 -54 18 -125 21 -680 2 -341 3 -624 4 -628
0 -5 19 -7 42 -5 l41 3 -1 570 c0 314 -5 602 -10 640 -12 89 -47 248 -66 300
-8 22 -15 63 -16 90 0 28 -9 70 -20 94 -11 24 -20 52 -20 63 0 11 -9 37 -19
57 -11 20 -26 63 -34 96 -29 111 -42 152 -57 170 -8 10 -20 36 -26 59 -22 78
-45 131 -122 286 -81 164 -180 327 -224 368 -10 9 -18 24 -18 34 0 9 -20 36
-45 59 -25 23 -45 46 -45 52 0 27 -257 256 -340 303 -26 14 -60 58 -60 78 0
23 47 32 69 12 10 -9 25 -16 35 -16 9 0 27 -11 39 -24 13 -14 36 -28 51 -32
39 -9 117 -54 123 -70 2 -7 18 -16 35 -19 35 -8 82 -37 226 -140 34 -25 66
-45 72 -45 5 0 13 -6 17 -13 4 -7 24 -25 43 -41 156 -126 293 -262 396 -388
36 -46 75 -89 85 -96 10 -7 19 -18 19 -23 0 -6 15 -29 34 -52 18 -23 55 -76
82 -117 27 -41 55 -81 62 -88 6 -7 12 -18 12 -24 0 -6 12 -26 26 -45 14 -18
36 -57 50 -86 14 -28 40 -77 59 -107 18 -30 36 -69 40 -86 3 -18 12 -37 20
-44 8 -7 15 -18 15 -24 0 -7 11 -27 25 -46 14 -19 25 -44 25 -57 0 -12 20 -65
45 -116 25 -52 45 -105 45 -119 0 -13 7 -33 15 -44 8 -10 15 -27 15 -37 0 -11
6 -33 14 -50 17 -38 55 -174 86 -307 12 -52 28 -120 36 -150 7 -30 18 -77 23
-105 6 -27 15 -70 21 -95 7 -25 16 -70 21 -100 15 -82 17 -84 34 -70 20 17 20
120 -1 190 -9 29 -19 101 -24 160 -4 60 -10 112 -14 118 -3 5 -15 61 -26 123
-25 149 -48 264 -62 314 -6 22 -16 72 -23 110 -15 82 -78 340 -99 405 -8 25
-17 63 -21 85 -7 41 -10 53 -39 118 -9 21 -16 48 -16 60 -1 12 -7 33 -15 47
-8 14 -14 39 -15 56 0 17 -11 52 -25 78 -14 26 -25 55 -25 64 0 9 -9 31 -20
47 -11 17 -20 46 -20 65 0 19 -9 49 -20 65 -11 17 -20 37 -20 46 0 9 -9 24
-19 33 -10 10 -22 34 -26 54 -4 20 -51 127 -105 237 -54 110 -100 208 -104
218 -3 9 -10 17 -16 17 -6 0 -19 19 -29 43 -11 23 -40 71 -65 106 -25 36 -46
69 -46 74 0 5 -20 32 -45 60 -25 29 -45 56 -45 62 0 5 -17 28 -38 50 -20 23
-53 62 -72 88 -19 25 -42 49 -50 52 -8 3 -28 23 -45 45 -16 21 -37 41 -45 44
-8 3 -43 26 -77 51 -41 29 -63 40 -63 31 0 -8 5 -18 10 -21 6 -3 10 -13 10
-21 0 -14 37 -69 73 -109 120 -135 174 -205 284 -368 12 -17 31 -44 42 -58 11
-14 26 -39 33 -55 7 -16 31 -56 53 -89 23 -33 72 -122 110 -198 37 -76 72
-140 77 -143 4 -3 8 -13 8 -23 0 -10 18 -54 40 -97 22 -43 40 -89 40 -101 0
-12 4 -24 8 -27 5 -3 21 -38 36 -78 16 -40 39 -100 52 -133 13 -33 28 -80 33
-105 5 -25 15 -66 22 -92 7 -26 10 -50 6 -54 -9 -9 -46 24 -59 51 -16 36 -52
90 -90 137 -21 25 -38 48 -38 52 0 10 -142 196 -189 248 -9 9 -34 39 -56 65
-122 145 -420 414 -520 469 -16 9 -38 23 -47 31 -19 17 -65 44 -118 68 -19 10
-49 28 -67 41 -17 13 -38 24 -45 24 -8 0 -22 6 -33 14 -11 7 -53 25 -94 39
-92 32 -119 56 -104 90 30 65 374 419 444 456 19 10 39 27 44 38 19 38 37 53
62 53 28 0 93 -46 93 -65 0 -7 11 -16 24 -19 13 -3 39 -23 59 -45 19 -21 46
-42 59 -46 12 -5 39 -24 59 -44 20 -20 43 -40 51 -46 82 -54 98 -66 98 -73 0
-4 12 -15 28 -24 29 -17 211 -167 276 -227 68 -63 135 -126 146 -138 63 -63
80 -80 92 -89 7 -6 27 -26 45 -45 17 -19 36 -38 42 -44 20 -18 93 -98 145
-160 27 -33 64 -75 82 -94 18 -18 40 -49 50 -67 10 -19 25 -37 34 -40 8 -3 35
-37 60 -76 25 -39 55 -80 68 -92 12 -11 22 -26 22 -33 0 -8 20 -39 45 -70 25
-30 45 -59 45 -63 0 -5 15 -30 33 -56 31 -46 117 -198 157 -279 11 -22 24 -47
29 -55 14 -21 51 -105 51 -113 0 -4 17 -42 37 -85 33 -70 44 -102 89 -256 7
-27 20 -57 29 -66 8 -9 15 -34 15 -56 0 -21 9 -59 20 -83 11 -24 20 -65 20
-91 0 -37 6 -55 25 -78 14 -17 25 -41 25 -55 0 -46 12 -87 26 -87 20 0 20 136
0 143 -9 4 -15 32 -18 91 -4 51 -12 95 -21 109 -8 12 -18 47 -22 77 -4 30 -13
69 -21 85 -7 17 -18 61 -24 99 -6 38 -17 81 -25 97 -8 15 -15 37 -15 49 0 11
-9 39 -21 62 -11 22 -23 66 -26 97 -3 31 -11 65 -18 76 -7 11 -16 35 -20 54
-4 19 -18 57 -31 85 -13 28 -24 65 -24 82 0 16 -7 39 -15 50 -8 10 -15 28 -15
39 0 12 -9 39 -20 60 -12 22 -26 60 -32 85 -6 25 -17 57 -24 72 -8 15 -14 36
-14 46 0 11 -9 31 -20 45 -11 14 -20 35 -20 47 0 12 -6 34 -14 48 -16 29 -50
110 -87 207 -13 33 -31 71 -41 84 -10 13 -18 29 -18 35 0 6 -9 28 -20 49 -11
20 -20 45 -20 55 0 11 -9 27 -20 37 -11 10 -20 23 -20 30 0 6 -11 26 -25 45
-14 19 -25 46 -25 60 0 15 -9 35 -20 45 -11 10 -20 23 -20 30 0 7 -11 24 -25
39 -14 15 -25 35 -25 45 0 9 -19 46 -43 82 -23 35 -50 80 -60 100 -9 20 -24
42 -32 49 -9 8 -23 29 -31 49 -8 19 -18 38 -23 41 -4 3 -35 46 -68 95 -34 50
-70 99 -82 109 -12 11 -21 24 -21 31 0 6 -16 29 -36 51 -20 21 -44 50 -53 64
-9 14 -43 53 -76 88 -33 35 -64 70 -68 78 -4 8 -13 14 -18 14 -6 0 -28 14 -50
32 -39 31 -47 51 -30 76 16 26 132 -17 193 -72 9 -8 32 -19 50 -24 41 -11 118
-58 118 -72 0 -6 6 -10 14 -10 29 0 86 -32 217 -123 131 -89 183 -129 192
-143 4 -7 23 -20 41 -29 18 -9 39 -27 46 -40 7 -14 22 -27 33 -31 20 -6 167
-149 167 -163 0 -4 9 -12 19 -17 19 -9 85 -86 131 -153 14 -20 40 -51 57 -70
18 -19 38 -48 45 -65 6 -17 29 -53 50 -79 21 -27 38 -57 38 -67 0 -10 7 -23
15 -30 8 -7 15 -20 15 -30 0 -9 8 -28 18 -41 10 -13 24 -43 31 -66 6 -24 15
-43 20 -43 4 0 13 -11 19 -25 6 -14 16 -25 21 -25 21 0 21 42 1 117 -12 43
-28 101 -35 128 -8 28 -18 70 -23 95 -5 25 -17 65 -25 90 -29 81 -55 174 -61
214 -3 21 -11 46 -19 55 -8 9 -18 30 -21 46 -4 17 -14 37 -22 46 -8 9 -18 39
-23 66 -4 28 -26 84 -49 126 -23 42 -42 82 -42 89 0 17 -121 242 -133 247 -5
2 -17 22 -28 45 -24 52 -124 196 -149 213 -10 7 -33 31 -51 54 l-32 41 20 20
c19 18 25 19 79 8 85 -18 140 -37 219 -77 102 -52 142 -83 245 -186 113 -112
161 -175 204 -264 14 -29 28 -53 31 -53 21 0 54 36 59 65 4 19 13 38 20 42 7
5 25 29 40 56 16 26 31 47 35 47 3 0 26 25 51 56 43 53 105 109 203 182 24 17
47 32 50 32 3 0 23 10 44 23 48 28 89 43 182 68 92 24 118 24 131 0 15 -30 12
-40 -15 -47 -14 -3 -25 -10 -25 -15 0 -4 -16 -25 -36 -46 -36 -39 -164 -227
-164 -242 0 -4 -9 -16 -20 -26 -10 -9 -24 -33 -30 -51 -7 -19 -16 -34 -20 -34
-5 0 -14 -18 -20 -41 -6 -22 -18 -43 -26 -46 -7 -3 -14 -10 -14 -17 0 -6 -9
-29 -19 -50 -11 -21 -23 -52 -27 -69 -3 -18 -15 -40 -25 -50 -11 -10 -19 -26
-19 -36 0 -10 -9 -30 -20 -44 -11 -14 -20 -39 -20 -56 0 -17 -9 -48 -20 -68
-11 -21 -20 -45 -20 -53 0 -8 -11 -37 -25 -65 -13 -27 -25 -65 -25 -83 0 -18
-5 -42 -11 -53 -10 -19 -21 -58 -68 -239 -12 -47 -27 -95 -33 -107 -6 -12 -11
-51 -12 -85 -1 -56 1 -63 19 -63 13 0 21 9 26 30 3 17 23 63 43 102 20 40 36
78 36 85 0 7 20 42 45 78 25 36 45 70 45 76 0 11 83 124 158 214 90 108 174
193 332 332 65 57 99 83 175 134 22 15 53 38 69 51 15 13 42 30 60 38 17 8 51
30 76 49 25 19 52 35 61 35 9 1 33 15 54 31 21 17 43 30 50 30 7 0 18 6 24 14
6 7 26 16 43 20 18 3 41 15 53 25 37 35 117 71 156 71 35 0 39 -3 39 -24 0
-17 -12 -34 -37 -53 -53 -38 -233 -224 -233 -239 0 -7 -18 -30 -40 -50 -22
-20 -42 -46 -46 -57 -4 -11 -33 -54 -65 -94 -33 -41 -59 -79 -59 -85 0 -6 -12
-25 -27 -43 -26 -30 -44 -56 -83 -124 -8 -14 -23 -37 -33 -51 -9 -13 -17 -32
-17 -41 0 -9 -9 -24 -21 -35 -11 -10 -32 -43 -45 -74 -27 -58 -28 -60 -74
-130 -16 -25 -30 -53 -30 -63 0 -11 -9 -30 -20 -44 -11 -14 -20 -31 -20 -38 0
-6 -9 -20 -19 -29 -11 -10 -23 -32 -26 -50 -7 -33 -51 -133 -68 -154 -5 -7
-22 -47 -37 -90 -15 -42 -35 -93 -43 -112 -9 -19 -28 -66 -42 -105 -14 -38
-32 -83 -40 -98 -8 -16 -15 -36 -15 -45 -1 -9 -9 -35 -20 -57 -11 -22 -19 -50
-20 -63 0 -13 -9 -40 -19 -60 -26 -48 -50 -123 -62 -192 -6 -30 -16 -61 -24
-70 -7 -8 -19 -37 -26 -65 -6 -27 -18 -62 -25 -77 -8 -15 -14 -43 -14 -62 0
-20 -11 -64 -24 -98 -39 -106 -64 -190 -70 -245 -4 -28 -13 -64 -20 -78 -8
-15 -17 -59 -21 -98 -4 -39 -15 -83 -24 -96 -12 -19 -15 -45 -13 -110 1 -46 5
-87 8 -90 3 -3 14 5 25 18 14 17 19 39 19 85 0 40 6 69 16 84 9 13 18 51 21
85 4 37 13 71 24 85 10 13 21 44 25 70 4 26 13 56 20 67 8 11 14 29 14 41 0
22 45 143 74 199 9 17 16 35 16 42 0 12 101 219 151 308 15 28 35 66 44 85 8
19 22 41 29 50 7 8 26 38 41 65 15 28 42 69 61 92 19 23 34 48 34 55 0 8 18
31 40 53 21 21 42 51 45 66 4 16 15 31 26 34 10 4 19 10 19 15 0 9 85 125 121
165 9 11 41 47 69 80 106 123 135 156 149 168 7 7 25 25 40 41 14 16 37 40 51
53 14 12 35 33 47 45 45 45 64 64 113 108 47 44 126 114 174 155 113 98 145
125 151 125 9 0 101 75 132 107 12 13 28 23 36 23 7 0 28 18 46 39 19 22 45
41 61 45 16 3 31 13 34 23 4 10 23 29 43 43 20 14 48 37 62 53 14 15 31 27 37
27 6 0 17 7 24 15 15 18 54 20 68 2 6 -6 13 -24 17 -39 4 -17 16 -29 33 -33
48 -12 128 -82 270 -237 169 -183 202 -224 202 -247 0 -23 -31 -47 -75 -56
-37 -8 -194 -74 -215 -91 -8 -6 -46 -28 -85 -49 -38 -21 -81 -48 -95 -60 -14
-12 -54 -42 -90 -66 -77 -51 -239 -185 -294 -243 -186 -196 -239 -254 -291
-321 -33 -42 -72 -91 -86 -108 -28 -35 -108 -155 -178 -266 -25 -39 -48 -71
-53 -71 -19 0 -18 30 2 69 11 23 20 47 18 54 -3 16 11 75 27 112 7 17 21 57
30 90 18 59 55 153 99 250 34 75 145 306 163 340 63 119 87 162 97 175 7 8 18
26 24 40 18 37 73 121 108 166 17 21 38 53 47 69 8 17 46 66 84 111 37 45 83
101 100 125 18 24 58 75 88 113 58 72 74 117 34 94 -12 -7 -35 -25 -51 -40
-16 -16 -32 -28 -37 -28 -10 0 -221 -209 -221 -218 0 -4 -20 -29 -45 -55 -25
-27 -45 -53 -45 -59 0 -6 -17 -31 -38 -57 -22 -25 -52 -68 -67 -96 -16 -27
-39 -63 -52 -78 -13 -16 -23 -34 -23 -41 0 -8 -9 -24 -19 -37 -27 -35 -171
-321 -171 -340 0 -9 -8 -24 -19 -33 -10 -9 -21 -31 -25 -47 -3 -17 -13 -37
-21 -45 -8 -9 -15 -30 -15 -48 0 -20 -8 -40 -20 -51 -11 -10 -20 -24 -20 -32
0 -8 -11 -35 -25 -61 -14 -26 -25 -63 -25 -82 0 -20 -7 -46 -16 -59 -9 -13
-21 -42 -26 -64 -5 -23 -15 -49 -23 -57 -8 -8 -18 -44 -24 -79 -6 -34 -14 -68
-19 -74 -6 -7 -13 -28 -17 -47 -4 -19 -15 -62 -26 -95 -38 -121 -59 -199 -59
-214 0 -9 -16 -79 -36 -156 -20 -77 -40 -164 -45 -194 -4 -30 -14 -82 -23
-115 -8 -34 -19 -86 -24 -116 -5 -30 -19 -107 -31 -170 -11 -63 -27 -153 -35
-200 -19 -105 -25 -322 -10 -327 22 -7 34 25 38 103 2 43 12 99 21 124 10 25
23 81 31 125 18 109 50 232 114 440 12 39 27 94 35 123 7 30 20 61 28 70 8 10
18 31 22 49 3 17 13 37 21 44 8 6 14 26 14 44 0 18 9 43 19 57 11 13 23 36 26
51 4 14 13 28 20 31 7 2 16 20 20 38 9 41 52 133 70 148 8 6 17 24 20 40 3 16
13 34 21 41 8 6 14 17 14 23 0 7 13 30 30 52 16 21 30 43 30 47 0 5 13 27 28
50 16 23 51 75 78 115 72 106 89 129 128 173 20 21 36 46 36 54 0 9 11 20 24
26 13 6 34 28 47 50 13 21 27 39 31 39 5 0 20 14 35 32 67 75 234 232 303 282
41 30 84 64 96 76 12 11 41 31 66 44 24 13 69 42 99 65 30 22 61 41 69 41 14
0 86 44 118 71 7 6 30 16 50 21 20 6 47 21 59 34 12 13 31 24 41 24 11 0 25 7
32 16 8 8 25 14 39 12 38 -4 42 -50 6 -75 -14 -10 -50 -37 -79 -60 -29 -24
-58 -43 -65 -43 -16 0 -251 -239 -251 -255 0 -7 -17 -28 -38 -47 -22 -19 -49
-55 -61 -80 -12 -25 -35 -57 -51 -72 -18 -15 -30 -36 -30 -51 0 -14 -8 -29
-20 -35 -11 -6 -20 -17 -20 -24 0 -7 -8 -24 -18 -37 -40 -53 -184 -370 -222
-492 -10 -32 -23 -64 -28 -70 -5 -7 -13 -28 -17 -47 -4 -19 -13 -44 -20 -55
-7 -11 -15 -44 -18 -74 -4 -29 -14 -65 -24 -80 -9 -14 -20 -44 -24 -66 -4 -22
-14 -58 -23 -80 -8 -22 -15 -61 -16 -86 0 -26 -9 -75 -19 -110 -11 -35 -22
-89 -26 -119 -3 -30 -13 -89 -20 -130 -16 -88 -24 -1136 -9 -1149 19 -17 64
-22 70 -8 3 8 6 270 7 583 2 513 4 578 21 659 23 107 62 248 81 290 8 17 17
42 21 57 3 14 14 34 25 44 10 9 19 24 19 33 0 14 41 81 100 166 36 52 137 158
158 166 12 5 22 15 22 23 0 14 61 66 79 66 5 0 14 6 18 14 10 18 69 61 103 76
13 6 27 14 30 18 17 23 175 106 315 167 22 9 58 26 81 36 22 10 48 19 57 19 9
0 31 6 49 14 80 35 366 106 426 106 28 0 30 35 2 43 -11 3 -24 16 -29 29 -5
13 -16 30 -25 37 -9 8 -19 31 -22 52 -4 21 -13 44 -20 50 -8 6 -14 17 -14 24
0 7 -10 25 -22 40 -12 16 -37 59 -55 96 -18 37 -37 70 -43 74 -6 4 -21 28 -34
54 -14 26 -32 53 -40 60 -9 8 -16 20 -16 27 0 8 -27 49 -60 92 -33 44 -60 83
-60 89 0 5 -20 31 -45 56 -25 26 -45 53 -45 60 0 8 -21 37 -47 65 -75 81 -137
154 -162 190 -12 17 -28 32 -36 32 -7 0 -21 12 -31 28 -23 36 -151 158 -269
257 -26 22 -59 51 -74 65 -14 14 -42 37 -61 50 -19 13 -39 30 -43 37 -4 7 -14
13 -22 13 -8 0 -37 20 -65 45 -28 25 -57 45 -64 45 -7 0 -25 10 -39 23 -52 44
-82 64 -107 70 -14 3 -44 22 -67 42 -23 19 -46 35 -51 35 -6 0 -41 16 -79 36
-96 52 -182 94 -190 94 -8 0 -85 35 -125 56 -14 8 -35 14 -45 14 -10 0 -28 7
-39 15 -26 18 -203 75 -233 75 -13 0 -34 9 -48 20 -14 11 -36 20 -50 20 -13 0
-49 8 -81 19 -31 10 -91 22 -132 26 -41 4 -81 12 -89 18 -10 8 -69 12 -185 12
-217 -1 -274 -13 -178 -40 41 -12 44 -20 22 -50 -18 -25 -107 -98 -138 -114
-23 -12 -193 -183 -232 -233 -12 -16 -29 -28 -37 -28 -9 0 -74 58 -145 130
-70 71 -161 152 -201 179 -71 48 -103 83 -92 101 3 4 19 11 36 15 16 4 28 12
26 18 -10 32 -285 36 -392 7z m-113 -172 c30 -33 47 -57 155 -220 120 -181
185 -301 269 -498 44 -105 49 -125 38 -154 -11 -28 -31 -18 -101 52 -136 133
-222 212 -231 212 -5 0 -16 7 -23 16 -18 22 -148 121 -214 164 -30 19 -71 47
-92 61 -71 48 -158 96 -194 108 -20 6 -44 20 -54 31 -9 10 -30 22 -45 25 -24
5 -60 41 -60 59 0 9 80 47 139 66 31 10 70 25 86 33 17 8 50 20 75 27 25 6 74
19 110 29 94 27 108 26 142 -11z m1926 2 c31 -11 65 -20 75 -20 16 0 103 -33
227 -86 89 -38 90 -51 8 -103 -35 -22 -70 -41 -78 -41 -9 0 -20 -4 -25 -9 -6
-5 -41 -25 -79 -46 -64 -33 -167 -99 -236 -150 -15 -11 -40 -29 -56 -40 -48
-32 -285 -239 -344 -300 -30 -31 -74 -69 -97 -85 l-43 -29 0 47 c0 49 3 57 96
248 24 50 44 94 44 99 0 24 185 320 275 440 25 33 48 67 52 75 3 8 11 18 17
22 17 11 102 0 164 -22z m-2748 -295 c0 -8 4 -15 9 -15 5 0 35 -34 66 -75 32
-41 61 -75 65 -75 5 0 24 -24 43 -53 20 -30 43 -59 51 -66 8 -7 29 -36 47 -64
18 -29 43 -63 55 -77 42 -46 113 -148 151 -218 14 -26 32 -54 40 -63 18 -21
83 -129 83 -139 0 -4 9 -15 20 -25 11 -10 20 -27 20 -38 0 -10 15 -40 33 -66
30 -41 75 -127 113 -218 8 -17 25 -48 39 -69 14 -20 25 -44 25 -52 0 -8 18
-52 40 -98 22 -46 40 -91 40 -99 0 -9 6 -26 14 -38 8 -12 20 -47 27 -77 7 -30
19 -62 26 -71 15 -18 17 -45 4 -54 -10 -5 -81 61 -81 76 0 12 -144 194 -229
289 -82 91 -331 349 -396 410 -99 92 -282 254 -305 268 -14 9 -42 31 -63 50
-22 18 -69 54 -105 78 -37 25 -81 55 -99 67 -68 47 -149 94 -173 102 -14 4
-37 16 -51 26 -15 10 -37 22 -48 27 -22 8 -22 8 8 50 17 23 46 52 65 64 18 13
80 54 137 93 122 82 275 164 307 165 13 0 22 -6 22 -15z m3513 -25 c34 -16 89
-47 122 -69 33 -22 67 -44 75 -47 8 -4 29 -18 46 -31 17 -13 36 -23 42 -23 6
0 14 -9 17 -20 3 -11 13 -20 20 -20 19 0 76 -51 97 -87 l17 -30 -42 -20 c-23
-11 -64 -31 -92 -44 -63 -31 -186 -110 -204 -132 -7 -9 -19 -17 -25 -17 -14 0
-170 -121 -339 -264 -120 -102 -500 -486 -584 -591 -149 -186 -194 -241 -213
-261 -11 -12 -20 -27 -20 -33 0 -6 -13 -17 -30 -26 -30 -15 -30 -15 -30 12 0
35 61 188 151 380 22 46 39 89 39 96 0 8 9 26 20 40 11 14 20 31 20 39 0 7 7
24 16 37 16 23 41 68 122 221 22 41 52 92 66 113 14 21 26 41 26 45 1 4 23 39
50 77 27 39 59 88 70 110 11 22 39 63 61 90 23 28 62 79 87 115 25 36 59 79
75 97 16 17 39 47 51 66 11 19 55 74 96 121 87 100 96 102 193 56z m1240
-1149 c20 -19 37 -40 37 -47 0 -6 14 -29 31 -50 17 -22 47 -68 67 -104 20 -36
45 -78 57 -95 36 -49 115 -204 115 -224 0 -10 -6 -23 -12 -28 -17 -13 -112
-42 -162 -50 -23 -3 -57 -14 -76 -25 -19 -10 -41 -18 -49 -18 -7 0 -53 -18
-102 -40 -49 -22 -95 -40 -102 -40 -11 0 -99 -44 -224 -112 -71 -38 -218 -140
-288 -198 -33 -28 -77 -59 -97 -70 l-38 -20 0 32 c0 39 22 105 55 168 13 25
41 81 61 125 20 44 40 82 43 85 3 3 14 21 25 40 60 112 81 148 102 173 13 16
24 32 24 37 0 20 144 188 297 348 183 190 163 181 236 113z m-5877 -116 c87
-90 175 -183 195 -207 43 -50 189 -267 189 -280 0 -4 13 -27 30 -50 16 -22 30
-46 30 -52 0 -6 11 -28 25 -48 13 -20 35 -65 48 -100 14 -34 34 -84 47 -110
12 -27 20 -54 17 -61 -3 -7 1 -24 9 -38 14 -25 19 -69 8 -69 -6 0 -36 23 -99
76 -38 32 -133 106 -153 119 -90 59 -247 155 -253 155 -5 0 -42 15 -82 34
-119 55 -269 115 -318 125 -74 17 -222 70 -231 83 -12 20 -10 30 17 73 13 22
25 46 25 53 0 7 18 39 40 71 22 32 40 62 40 67 0 5 13 28 28 51 15 23 40 64
57 90 62 101 132 183 155 183 9 0 88 -74 176 -165z"/>
<path d="M3655 5141 c-6 -11 9 -23 19 -14 9 9 7 23 -3 23 -6 0 -12 -4 -16 -9z"/>
<path d="M4533 3940 c-12 -5 -34 -26 -48 -47 -14 -21 -41 -60 -60 -88 -31 -47
-55 -78 -97 -127 -10 -12 -18 -25 -18 -30 0 -5 -19 -34 -42 -66 -24 -31 -46
-61 -50 -66 -5 -8 -10 -8 -17 -1 -8 8 -7 71 0 203 12 207 10 222 -37 222 -12
0 -26 -5 -30 -12 -9 -14 -8 -1033 1 -1048 10 -16 53 -12 63 6 6 10 7 119 4
259 -4 219 -3 244 13 268 9 15 23 27 29 27 20 0 54 -42 62 -75 3 -16 14 -39
23 -50 24 -28 71 -100 71 -108 0 -3 15 -27 33 -53 17 -25 41 -61 52 -80 103
-175 128 -204 172 -204 28 0 33 4 33 23 0 13 -12 39 -26 58 -14 19 -58 84 -97
145 -40 61 -76 118 -82 126 -5 8 -22 33 -37 56 -15 22 -32 43 -38 47 -5 3 -10
14 -10 24 0 10 -20 40 -45 67 -36 39 -45 56 -45 86 0 31 7 44 45 79 25 23 45
48 45 55 0 7 19 36 43 63 23 27 58 71 76 98 19 26 43 55 53 63 9 8 19 31 20
50 2 29 -1 35 -17 37 -11 1 -30 -2 -42 -7z"/>
<path d="M5915 3933 c-93 -28 -167 -68 -233 -128 -55 -49 -122 -141 -122 -167
0 -9 -9 -27 -20 -41 -43 -54 -43 -329 -1 -383 12 -15 21 -33 21 -42 0 -23 39
-83 89 -135 62 -66 142 -118 222 -145 126 -43 354 -22 424 38 11 10 29 21 41
24 11 3 31 17 43 30 47 50 -13 101 -67 57 -15 -11 -52 -34 -83 -50 -68 -36
-207 -59 -252 -42 -16 6 -39 11 -51 11 -70 0 -226 120 -282 217 -124 210 -58
472 153 616 90 61 126 70 260 65 123 -5 164 -18 241 -79 40 -31 102 -21 102
18 0 18 -49 61 -79 68 -14 4 -33 13 -42 21 -9 8 -51 26 -94 39 -90 29 -191 32
-270 8z"/>
<path d="M6561 3937 c-16 -20 -15 -1052 2 -1065 7 -6 21 -6 36 -1 l23 9 -3
220 c-3 154 0 223 8 231 12 12 391 18 411 5 11 -7 10 -126 -3 -349 -4 -67 -2
-80 15 -97 11 -11 29 -20 40 -20 20 0 20 7 20 535 0 509 -1 535 -18 535 -10 0
-27 -6 -37 -14 -18 -13 -19 -26 -16 -208 1 -106 7 -215 12 -242 7 -37 6 -52
-3 -58 -18 -11 -410 -10 -427 1 -10 7 -12 23 -7 67 3 33 6 144 7 249 0 170 -1
191 -17 202 -22 16 -29 16 -43 0z"/>
<path d="M822 3924 c-12 -8 -22 -20 -22 -25 0 -9 -69 -127 -157 -272 -18 -28
-32 -59 -33 -68 0 -9 -8 -23 -18 -33 -16 -14 -49 -74 -76 -136 -23 -52 -62
-100 -82 -100 -8 0 -39 48 -69 108 -31 59 -65 123 -76 142 -12 19 -43 72 -70
116 -27 45 -49 85 -49 89 0 4 -9 19 -21 33 -37 49 -69 103 -69 117 0 17 -31
35 -59 35 -21 0 -21 -1 -21 -531 l0 -530 23 6 c12 4 25 10 28 14 10 10 -8 782
-19 825 -17 65 5 87 45 44 12 -13 57 -94 102 -181 45 -87 89 -170 100 -185 50
-74 71 -109 71 -118 0 -6 11 -25 24 -43 14 -19 28 -46 31 -62 11 -49 66 -32
85 25 6 19 18 40 26 46 7 7 14 23 14 36 0 13 8 31 19 41 10 10 26 32 35 48 9
17 20 37 26 45 41 67 104 178 135 240 42 84 63 112 77 104 6 -4 9 -169 8 -428
-1 -231 -2 -429 -1 -438 1 -20 55 -26 67 -7 11 19 4 1032 -8 1046 -14 17 -39
16 -66 -3z"/>
<path d="M1382 3928 c-7 -7 -12 -19 -12 -27 0 -23 -27 -100 -111 -316 -10 -28
-19 -56 -19 -62 0 -7 -11 -38 -25 -69 -14 -31 -25 -64 -25 -73 0 -9 -7 -29
-15 -44 -8 -15 -17 -45 -21 -65 -3 -20 -12 -42 -19 -48 -17 -13 -53 -113 -65
-176 -5 -26 -18 -60 -30 -76 -28 -38 -25 -96 5 -100 39 -5 69 47 111 193 8 28
21 64 29 82 8 17 15 39 15 50 0 10 9 33 20 51 l20 32 165 0 c162 0 165 0 180
-24 9 -13 20 -46 25 -72 11 -60 47 -164 65 -184 7 -8 15 -35 19 -60 9 -57 21
-70 62 -70 30 0 34 3 34 26 0 14 -9 44 -19 67 -32 69 -71 178 -71 196 0 9 -9
33 -20 54 -11 20 -20 43 -20 51 0 7 -9 25 -21 39 -11 15 -23 44 -26 64 -7 52
-49 179 -68 206 -8 12 -15 30 -15 40 0 18 -23 80 -60 163 -10 23 -22 62 -25
88 -10 63 -36 91 -63 64z m73 -316 c18 -57 40 -118 49 -137 9 -18 16 -39 16
-47 0 -8 5 -19 12 -26 8 -8 9 -18 1 -34 -10 -22 -15 -23 -134 -23 -122 0 -124
1 -127 23 -2 13 9 53 24 90 43 106 64 166 64 180 0 7 7 29 15 48 24 58 42 41
80 -74z"/>
<path d="M1915 3930 c-3 -5 -9 -967 -6 -1042 1 -13 9 -18 30 -18 50 0 53 13
43 187 -10 188 -13 183 95 183 60 0 77 -4 93 -20 11 -11 20 -26 20 -34 0 -7 7
-20 17 -27 9 -8 21 -26 27 -40 6 -14 28 -52 49 -85 22 -32 53 -81 71 -109 29
-46 34 -50 71 -50 37 0 40 2 37 25 -2 14 -9 32 -15 41 -7 9 -47 69 -91 133
-43 63 -84 120 -92 127 -8 6 -14 24 -14 40 0 24 5 29 34 35 19 3 42 15 52 25
9 10 22 19 28 19 18 0 54 44 86 105 27 52 30 65 30 155 0 133 -37 215 -123
273 -23 15 -48 34 -57 41 -31 26 -108 39 -243 41 -76 1 -140 -1 -142 -5z m347
-104 c94 -54 141 -131 142 -236 1 -92 -22 -146 -92 -211 l-57 -54 -137 -3
c-110 -3 -138 -1 -138 10 0 7 0 125 0 263 0 184 4 251 13 258 7 4 59 6 117 4
91 -4 111 -8 152 -31z"/>
<path d="M2617 3928 c-9 -6 -12 -125 -12 -530 l0 -523 28 -3 c47 -6 57 12 56
97 0 42 -4 114 -8 161 -10 103 -4 110 83 110 91 0 99 -5 141 -78 21 -37 62
-104 92 -149 29 -45 53 -86 53 -91 0 -18 47 -52 73 -52 24 0 27 4 27 36 0 25
-10 48 -33 77 -18 23 -49 67 -67 97 -19 30 -49 75 -67 99 -43 57 -42 78 1 96
85 36 150 102 175 178 7 20 17 39 22 42 5 4 9 42 9 85 0 62 -4 87 -20 112 -11
18 -20 39 -20 45 0 22 -54 90 -90 114 -19 13 -44 30 -55 40 -11 9 -42 22 -70
29 -56 14 -298 20 -318 8z m328 -95 c53 -28 95 -68 131 -122 26 -40 29 -53 29
-125 0 -95 -17 -131 -99 -211 l-51 -50 -137 -3 -138 -4 0 265 c0 145 3 267 8
271 4 4 54 6 112 4 82 -3 114 -9 145 -25z"/>
<path d="M3608 3923 c-9 -10 -18 -29 -21 -43 -13 -65 -49 -171 -79 -236 -21
-47 -55 -143 -67 -189 -4 -17 -13 -40 -19 -52 -7 -12 -12 -30 -12 -40 0 -11
-11 -41 -24 -69 -31 -61 -54 -126 -68 -184 -6 -25 -16 -52 -23 -60 -19 -21
-46 -97 -52 -143 l-5 -38 38 3 c34 3 40 7 49 38 6 19 16 46 22 60 13 32 27 69
72 200 l36 105 171 3 171 2 13 -32 c6 -18 18 -44 25 -58 7 -14 18 -48 23 -75
12 -59 33 -120 67 -192 22 -47 28 -53 55 -53 28 0 30 2 30 38 0 21 -3 42 -6
45 -10 9 -54 120 -54 133 0 11 -33 91 -65 159 -8 17 -19 52 -25 79 -6 26 -17
61 -25 77 -8 15 -15 37 -15 47 0 11 -8 30 -19 43 -10 13 -21 42 -25 64 -8 43
-50 156 -71 190 -7 11 -16 34 -19 50 -16 76 -41 145 -51 145 -7 0 -19 -8 -27
-17z m72 -313 c5 -25 18 -64 29 -87 12 -23 21 -48 21 -55 0 -7 9 -26 20 -43
39 -59 21 -99 -38 -83 -21 6 -75 8 -124 4 -87 -6 -88 -6 -94 19 -4 15 0 34 8
48 17 26 58 141 88 244 11 39 26 73 33 76 14 5 45 -60 57 -123z"/>
<path d="M4850 3926 c-15 -15 -14 -1028 2 -1044 17 -17 489 -17 506 0 15 15
16 50 1 65 -8 8 -70 10 -213 6 -127 -4 -209 -2 -220 4 -16 9 -18 29 -19 199 0
105 2 195 6 200 4 7 80 9 221 6 l215 -5 12 25 c8 19 8 31 -1 48 -12 22 -12 22
-224 15 -169 -6 -215 -5 -221 5 -5 7 -8 101 -8 209 l0 196 222 1 c241 1 252 3
235 51 l-10 28 -247 1 c-155 0 -250 -3 -257 -10z"/>
<path d="M1617 2693 c-9 -14 -5 -479 3 -493 7 -11 355 -14 1930 -14 1057 -1
1924 2 1926 6 2 3 5 118 7 255 l2 248 -45 0 -45 0 4 -201 c2 -110 0 -210 -3
-222 l-7 -22 -1839 0 -1839 0 -7 22 c-3 12 -5 112 -3 222 l4 201 -42 3 c-22 2
-43 -1 -46 -5z"/>
<path d="M4390 1669 c-14 -6 -35 -22 -48 -37 -21 -26 -22 -32 -21 -245 1 -120
-1 -221 -5 -224 -9 -9 -73 -13 -109 -6 l-28 5 7 118 c7 131 4 140 -48 116 -18
-8 -66 -16 -106 -18 -67 -3 -75 -6 -97 -33 -31 -38 -31 -73 1 -109 23 -26 32
-29 89 -30 44 -1 69 -6 80 -17 14 -14 14 -17 1 -28 -12 -10 -57 -11 -203 -4
l-188 8 3 25 c1 14 5 111 8 215 l7 190 -35 38 c-34 36 -77 50 -79 25 -5 -79 5
-596 12 -604 6 -7 124 -10 384 -10 l375 1 16 23 c14 20 16 56 15 250 0 125 3
246 8 269 8 43 4 94 -8 92 -3 0 -17 -5 -31 -10z m-302 -361 c7 -7 12 -23 12
-36 0 -21 -4 -23 -36 -20 -44 4 -65 28 -45 52 16 19 52 21 69 4z"/>
<path d="M6441 1671 c-12 -8 -14 -61 -12 -312 1 -167 5 -307 7 -311 4 -6 217
-5 520 2 22 0 54 42 54 69 0 21 -9 34 -35 52 -35 24 -64 63 -95 129 -47 100
-117 131 -159 71 -36 -50 -26 -81 31 -95 26 -6 98 -82 98 -103 0 -19 -21 -20
-180 -14 -148 6 -155 7 -152 26 2 11 6 110 8 220 l5 200 -36 38 c-20 20 -37
37 -38 37 -1 0 -8 -4 -16 -9z"/>
<path d="M1045 1628 c3 -24 8 -158 10 -298 3 -140 7 -262 9 -271 3 -15 45 -16
450 -14 415 3 449 4 467 21 14 13 19 28 17 53 l-3 36 -87 3 c-83 3 -88 4 -94
27 -13 54 -5 60 81 60 44 0 85 3 91 7 12 8 17 80 8 111 -6 20 -44 23 -62 5 -8
-8 -37 -12 -79 -11 -75 2 -137 -22 -148 -58 -10 -29 3 -89 21 -96 17 -6 19
-42 2 -44 -56 -6 -142 -3 -153 6 -10 8 -11 22 -4 65 17 102 -14 133 -66 65
-22 -29 -26 -44 -23 -83 l3 -47 -155 -5 c-85 -3 -161 -3 -168 -1 -11 3 -13 49
-11 221 l2 218 -28 36 c-21 27 -35 36 -57 36 -30 0 -30 -1 -23 -42z"/>
<path d="M4586 1637 l-25 -32 -2 -273 c-1 -286 1 -302 43 -302 11 0 28 5 38
10 18 10 19 21 13 213 -3 121 -1 240 6 296 11 100 6 121 -30 121 -10 0 -29
-15 -43 -33z"/>
<path d="M610 1615 c-20 -24 -4 -84 24 -91 62 -15 108 74 50 96 -36 14 -60 12
-74 -5z"/>
<path d="M3930 1600 c-30 -30 -26 -66 11 -85 28 -15 33 -15 55 0 31 20 34 79
5 95 -29 15 -49 12 -71 -10z"/>
<path d="M4088 1609 c-21 -12 -24 -69 -6 -87 15 -15 53 -16 79 -2 13 8 19 21
19 46 0 28 -5 36 -26 44 -32 12 -44 12 -66 -1z"/>
<path d="M4997 1592 c-25 -27 -21 -67 8 -86 32 -21 48 -20 68 2 20 22 22 73 5
90 -18 18 -63 14 -81 -6z"/>
<path d="M5162 1598 c-18 -18 -14 -73 6 -91 25 -23 46 -21 79 7 l28 24 -18 36
c-14 31 -22 36 -50 36 -18 0 -38 -5 -45 -12z"/>
<path d="M3234 1576 c-3 -8 -4 -31 -2 -52 3 -37 5 -39 42 -42 24 -2 42 2 47
10 13 19 11 72 -3 86 -17 17 -77 15 -84 -2z"/>
<path d="M5641 1378 c-24 -16 -50 -21 -104 -22 -58 -1 -78 -5 -104 -24 -29
-20 -33 -29 -33 -68 0 -32 6 -49 20 -61 45 -39 9 -55 -100 -44 -50 5 -65 10
-64 21 1 9 4 57 8 107 8 103 3 113 -48 89 -19 -9 -64 -22 -101 -30 -68 -14
-85 -27 -129 -91 -8 -11 -19 -58 -26 -105 -10 -71 -10 -86 3 -95 10 -7 213
-10 638 -9 l624 1 2 171 c1 95 -3 174 -7 177 -5 3 -28 -8 -51 -25 -32 -23 -53
-30 -89 -30 -41 0 -51 -5 -89 -42 -48 -47 -62 -76 -54 -106 2 -11 1 -22 -4
-25 -5 -3 -98 -7 -207 -9 -188 -3 -199 -2 -212 17 -8 11 -14 31 -12 45 3 24 6
25 78 26 41 1 83 2 93 3 14 1 17 11 17 70 0 39 -4 72 -8 75 -4 2 -23 -5 -41
-16z m477 -167 c4 -51 -6 -61 -59 -61 -41 0 -47 9 -39 60 4 26 11 36 30 41 52
15 65 7 68 -40z m-938 20 c5 -11 10 -31 10 -44 0 -27 -21 -37 -81 -37 -59 0
-72 35 -31 83 21 24 88 23 102 -2z"/>
<path d="M2775 1375 c-11 -8 -51 -21 -88 -28 -75 -16 -89 -25 -123 -79 -21
-32 -24 -50 -24 -127 0 -115 -16 -158 -65 -167 -50 -9 -103 3 -115 27 -7 12
-9 46 -4 89 6 66 5 70 -14 70 -11 0 -28 -3 -36 -6 -20 -7 -66 -102 -66 -133 0
-36 38 -99 69 -115 41 -22 45 -43 16 -78 -23 -28 -24 -31 -10 -59 19 -35 48
-38 69 -7 22 31 20 65 -4 73 -11 3 -20 10 -20 15 0 11 94 23 119 15 27 -8 110
56 134 104 15 29 18 51 14 114 -8 121 23 178 90 165 16 -3 19 -17 23 -103 l5
-100 354 2 c316 2 356 4 372 19 16 15 19 32 19 124 0 153 16 145 -272 145
-226 0 -230 0 -251 -23 -18 -19 -21 -33 -19 -87 3 -74 -6 -81 -84 -69 l-46 7
6 76 c13 141 13 146 -9 148 -11 1 -29 -4 -40 -12z m598 -134 c30 -12 45 -60
24 -76 -11 -8 -283 -13 -364 -6 -18 1 -16 57 3 75 13 13 42 16 164 16 82 0
160 -4 173 -9z"/>
<path d="M385 1332 c-58 -36 -60 -43 -60 -196 l0 -140 -44 -25 -44 -24 -36 19
c-31 17 -37 27 -52 84 -28 113 -79 104 -79 -14 0 -75 13 -101 68 -143 39 -30
50 -33 111 -33 60 0 73 4 110 30 41 30 73 84 86 144 6 27 8 28 48 22 23 -3
116 -6 207 -8 218 -2 210 -8 210 137 0 162 9 155 -202 155 -100 0 -187 -5
-209 -12 -33 -9 -42 -9 -57 5 -23 21 -21 21 -57 -1z m418 -94 c26 -21 32 -65
10 -75 -14 -6 -295 -9 -370 -4 -17 1 -17 63 -1 79 17 17 338 17 361 0z"/>
<path d="M6713 950 c-55 -22 -31 -100 32 -100 40 0 55 16 55 57 0 46 -35 64
-87 43z"/>
<path d="M1306 901 c-25 -27 -17 -72 15 -90 24 -13 29 -13 53 2 47 31 27 107
-28 107 -13 0 -31 -9 -40 -19z"/>
<path d="M1476 907 c-25 -18 -23 -64 2 -90 21 -20 23 -20 57 -4 28 14 35 22
35 46 0 49 -55 77 -94 48z"/>
<path d="M2491 821 c-17 -31 -13 -49 14 -67 31 -20 63 -10 71 23 9 35 -7 57
-44 61 -22 2 -34 -2 -41 -17z"/>
<path d="M3356 678 c-19 -27 -20 -57 -2 -81 13 -17 15 -17 49 5 71 46 75 98 8
98 -30 0 -44 -6 -55 -22z"/>
<path d="M5020 553 c-14 -19 -19 -34 -14 -48 4 -11 9 -123 10 -250 1 -126 3
-236 3 -242 1 -18 67 -17 74 1 8 21 8 530 0 542 -5 6 -18 14 -29 18 -17 5 -27
0 -44 -21z"/>
<path d="M146 557 c-9 -7 -17 -21 -17 -32 2 -221 14 -415 27 -445 45 -105 238
-107 300 -3 21 36 22 51 25 256 3 184 1 219 -11 227 -24 16 -68 11 -79 -7 -5
-10 -7 -98 -4 -212 4 -185 3 -198 -16 -228 -11 -18 -31 -35 -45 -39 -36 -9
-78 16 -88 51 -5 17 -8 119 -7 227 1 108 -2 201 -6 207 -9 15 -57 14 -79 -2z"/>
<path d="M580 555 c-8 -10 -12 -34 -9 -63 2 -26 2 -147 0 -269 l-3 -223 40 0
c23 0 42 5 45 13 3 6 2 75 -1 153 -3 94 -1 143 6 148 18 11 42 -5 48 -33 10
-45 52 -163 78 -223 25 -56 27 -58 65 -58 l39 0 4 267 c2 148 0 276 -4 286
-13 26 -64 22 -82 -6 -14 -20 -13 -36 5 -147 21 -132 19 -173 -8 -168 -27 5
-86 140 -108 246 -14 70 -83 116 -115 77z"/>
<path d="M992 553 c-4 -10 -6 -138 -4 -285 l4 -268 39 0 39 0 -2 282 -3 283
-32 3 c-23 2 -34 -2 -41 -15z"/>
<path d="M1155 559 c-9 -14 3 -122 20 -184 8 -27 19 -75 26 -105 6 -30 17 -66
24 -80 7 -14 16 -48 20 -75 4 -28 14 -65 21 -83 13 -31 16 -33 56 -30 46 3 40
-7 79 133 11 39 26 104 34 145 7 41 21 94 29 117 8 24 19 66 24 93 11 58 -1
80 -43 80 -41 0 -64 -72 -85 -254 -14 -134 -57 -181 -72 -80 -4 27 -12 83 -18
124 -20 143 -26 169 -45 190 -19 21 -60 27 -70 9z"/>
<path d="M1685 563 c-55 -2 -103 -7 -108 -12 -9 -9 -18 -426 -10 -499 l6 -53
141 3 141 3 0 35 0 35 -85 2 c-47 1 -93 2 -102 2 -22 1 -36 101 -19 138 11 25
13 25 82 19 80 -8 99 0 99 44 0 44 -19 52 -98 44 -64 -6 -71 -5 -81 14 -16 29
-14 78 5 113 14 27 19 30 47 25 18 -3 56 -8 84 -12 51 -6 53 -6 63 21 7 17 7
38 2 54 -10 29 -9 29 -167 24z"/>
<path d="M2425 550 c-22 -11 -46 -19 -52 -20 -29 0 -46 -50 -45 -132 1 -69 4
-84 24 -106 30 -32 78 -52 126 -52 57 0 92 -31 92 -80 0 -31 -6 -43 -32 -65
-41 -35 -82 -28 -123 21 -24 29 -36 35 -60 32 -24 -2 -31 -8 -33 -30 -4 -38
12 -64 58 -93 32 -20 52 -25 108 -25 67 0 71 2 116 41 l46 41 0 85 c0 83 -1
86 -32 117 -28 28 -43 34 -96 40 -69 8 -107 33 -117 78 -6 22 -1 30 31 52 21
14 43 26 48 26 5 0 28 -16 52 -35 31 -26 52 -35 78 -35 31 0 36 3 36 24 0 48
-37 92 -96 115 -68 26 -78 26 -129 1z"/>
<path d="M2740 555 c-10 -12 -11 -76 -5 -285 l7 -270 39 0 38 0 3 261 c3 282
-1 309 -46 309 -13 0 -29 -7 -36 -15z"/>
<path d="M4296 545 c-10 -15 -21 -52 -26 -84 -4 -31 -17 -83 -28 -116 -11 -33
-28 -103 -37 -155 -9 -52 -20 -104 -25 -115 -5 -11 -11 -32 -14 -47 -6 -27 -5
-28 32 -28 38 0 40 2 60 50 12 27 25 50 29 51 4 0 30 2 56 4 l48 2 25 -53 c23
-50 28 -54 60 -54 32 0 34 2 34 33 0 18 -5 38 -10 43 -6 6 -14 39 -19 75 -5
35 -24 114 -41 174 -17 61 -35 136 -39 167 -3 31 -9 60 -13 63 -3 3 -21 8 -40
11 -29 5 -37 2 -52 -21z m52 -188 c13 -16 34 -91 36 -132 1 -23 -4 -31 -26
-39 -20 -7 -31 -6 -43 4 -14 11 -15 26 -9 89 3 42 8 79 11 84 6 11 19 9 31 -6z"/>
<path d="M5437 541 c-9 -16 -17 -38 -17 -49 0 -11 -7 -36 -15 -55 -8 -20 -15
-51 -15 -70 0 -18 -6 -53 -14 -78 -8 -24 -22 -77 -31 -117 -9 -40 -23 -85 -31
-100 -7 -15 -14 -37 -14 -49 0 -20 5 -23 44 -23 43 0 44 1 50 39 5 32 11 41
37 50 38 13 99 14 118 2 8 -5 17 -26 20 -47 6 -37 8 -39 49 -42 38 -3 42 -1
42 20 0 13 -11 62 -24 108 -14 47 -29 111 -35 143 -6 31 -14 65 -19 75 -5 9
-15 53 -22 97 -10 57 -20 86 -36 102 -32 32 -66 30 -87 -6z m88 -267 c9 -89
-17 -118 -74 -78 -26 19 -25 30 15 119 23 54 27 58 39 42 7 -10 16 -47 20 -83z"/>
<path d="M5643 559 c-13 -13 -3 -56 27 -106 11 -19 20 -40 20 -46 0 -7 7 -25
16 -42 43 -81 54 -130 54 -232 0 -56 3 -108 6 -117 4 -11 19 -16 45 -16 l39 0
0 121 c0 120 0 121 40 205 22 47 40 92 40 102 0 38 13 61 41 73 36 14 39 11
50 -43 7 -39 37 -111 75 -178 10 -18 14 -62 14 -153 l0 -128 43 3 42 3 5 125
c5 117 16 167 48 226 14 25 59 126 72 160 14 35 -2 54 -44 54 -45 0 -71 -38
-80 -120 -7 -62 -19 -90 -37 -90 -16 0 -49 79 -49 119 0 35 -5 43 -37 66 -30
20 -50 25 -98 25 -85 -1 -115 -29 -129 -119 -8 -53 -22 -81 -40 -81 -23 0 -35
24 -42 86 -5 44 -13 66 -32 87 -27 28 -69 36 -89 16z"/>
<path d="M6432 543 c-11 -16 -22 -44 -25 -63 -3 -19 -10 -53 -15 -75 -28 -117
-47 -188 -68 -266 -13 -47 -24 -98 -24 -112 0 -25 3 -27 39 -27 38 0 39 1 46
41 5 30 13 43 32 50 32 12 85 12 117 -1 22 -8 26 -16 26 -50 l0 -40 41 0 41 0
-5 42 c-2 24 -11 68 -20 98 -8 30 -20 78 -25 105 -6 28 -15 68 -21 90 -6 22
-14 70 -17 108 -4 52 -11 74 -31 97 -32 38 -65 39 -91 3z m50 -200 c10 -9 26
-41 34 -72 16 -54 16 -55 -6 -73 -55 -44 -85 -13 -77 78 9 89 15 98 49 67z"/>
<path d="M6729 550 c-16 -14 -17 -33 -8 -255 4 -132 11 -252 15 -267 6 -28 7
-28 91 -28 110 0 169 20 206 68 l28 37 -3 180 c-3 168 -4 182 -26 212 -28 39
-96 61 -206 65 -60 3 -83 0 -97 -12z m209 -100 l32 -20 0 -150 c0 -149 0 -150
-26 -173 -28 -24 -91 -37 -123 -25 -20 7 -21 14 -21 187 0 161 2 181 18 190
28 17 85 12 120 -9z"/>
<path d="M1945 550 c-8 -14 -7 -514 2 -536 3 -8 19 -14 39 -14 l34 0 0 94 c0
120 14 138 59 75 17 -23 31 -50 31 -59 0 -10 7 -23 15 -30 8 -7 19 -27 23 -44
8 -29 11 -31 59 -34 l51 -3 -15 43 c-8 24 -20 50 -27 58 -22 26 -56 91 -56
105 0 8 12 22 28 32 48 29 52 41 52 144 0 111 -10 131 -75 157 -51 20 -210 28
-220 12z m169 -95 c36 -15 36 -15 36 -79 0 -71 -13 -91 -70 -102 -46 -10 -60
13 -60 94 0 101 19 118 94 87z"/>
<path d="M2879 538 c-18 -33 4 -68 41 -68 17 0 40 -5 51 -10 18 -10 19 -23 19
-235 l0 -225 39 0 c32 0 41 4 47 22 3 12 5 112 3 222 l-4 200 30 9 c56 16 80
33 83 55 7 45 -9 50 -158 50 -131 0 -141 -1 -151 -20z"/>
<path d="M3243 546 c-9 -14 -16 -448 -9 -499 l7 -47 149 0 c157 0 160 1 160
50 0 30 -19 35 -125 35 l-100 0 0 75 0 75 88 0 c93 0 107 7 107 51 0 36 -22
45 -111 42 l-84 -3 -3 49 c-6 99 11 112 128 93 45 -7 63 -7 75 3 16 13 20 57
7 76 -8 13 -281 14 -289 0z"/>
<path d="M3855 542 c-16 -8 -37 -18 -45 -22 -34 -15 -40 -52 -40 -238 0 -103
4 -191 10 -202 5 -10 30 -32 55 -49 63 -42 143 -44 209 -4 50 30 66 57 66 108
0 29 -4 36 -25 41 -35 9 -53 -1 -61 -33 -11 -46 -32 -63 -81 -63 -30 0 -49 6
-63 20 -18 18 -20 33 -20 175 l0 155 33 20 c17 11 40 20 50 20 33 0 78 -34 84
-63 7 -35 43 -46 78 -23 31 20 31 39 3 95 -19 36 -32 47 -73 62 -60 23 -139
23 -180 1z"/>
<path d="M4577 547 c-7 -18 10 -509 18 -529 6 -15 21 -18 104 -18 113 0 164
19 202 71 23 33 24 40 24 204 0 217 -8 241 -86 266 -67 22 -254 26 -262 6z
m223 -94 c34 -20 39 -42 39 -188 0 -110 -11 -160 -39 -175 -10 -6 -44 -10 -74
-10 l-56 0 0 177 c0 150 2 179 17 195 20 23 75 24 113 1z"/>
</g>
</svg>
